<svg width="302" height="99" viewBox="0 0 302 99" fill="none" xmlns="http://www.w3.org/2000/svg">
<path d="M11.0111 40.8398L11.6741 40.1474C18.9038 32.5971 29.0084 28.4855 39.4557 28.843L102 30.9831H177.876C185.6 30.9831 193.019 28.5524 199.158 24.1851C203.523 24.9616 207.932 25.5303 212.374 25.8861L276 30.9831C289.255 30.9831 300 41.7282 300 54.983V60.6651C301.876 80.1426 286.565 97 266.997 97H80.0602H34.9901C13.5586 97 -2.25762 76.9959 2.68614 56.1423C4.04953 50.3914 6.92345 45.1087 11.0111 40.8398Z" fill="white" fill-opacity="0.1"/>
<path d="M207.5 15.9548C200.586 25.4007 189.582 30.9831 177.876 30.9831H102L39.4557 28.843C29.0084 28.4855 18.9038 32.5971 11.6741 40.1474L11.0111 40.8398C6.92345 45.1087 4.04952 50.3914 2.68615 56.1423C-2.25762 76.9959 13.5586 97 34.9901 97H80.0602H266.997C286.565 97 301.876 80.1426 300 60.6651V54.983C300 41.7282 289.255 30.9831 276 30.9831L212.374 25.8861C188.214 23.9507 164.984 15.7149 145 2" stroke="url(#paint0_linear_10_466)" stroke-width="3" stroke-linecap="round"/>
<defs>
<linearGradient id="paint0_linear_10_466" x1="-7" y1="49.5" x2="303.5" y2="49.5" gradientUnits="userSpaceOnUse">
<stop stop-color="#EDFD2F"/>
<stop offset="1" stop-color="#20F48E"/>
</linearGradient>
</defs>
</svg>
