<svg xmlns="http://www.w3.org/2000/svg" xmlns:xlink="http://www.w3.org/1999/xlink" version="1.1" x="0px" y="0px" viewBox="0 0 73 91.25" style="enable-background:new 0 0 73 73;" xml:space="preserve"><g><path d="M12.9688721,31.8292847c-0.9167185,0.3697205-0.3623676,1.7605705,0.5625,1.390625   c0.2593384-0.1047363,0.5253906-0.1990967,0.7900391-0.2954712c4.495966,5.2868538,9.8197517,6.0206718,14.7958984,3.3965454   c1.9214478-1.0122681,4.45644-3.1288872,4.6711426-3.4356079c1.1626854,0.4198608,1.5124245-1.0466442,0.6374512-1.3676147   C27.7393799,29.0641479,19.5186768,29.1837769,12.9688721,31.8292847z M28.4180908,34.9938354   c-4.3936424,2.317646-8.8200455,1.5890427-12.5529785-2.5819702c1.9400024-0.5700684,3.9867554-0.9251099,6.0611572-1.0734863   c-0.0008621,2.6014709,3.5110188,1.7697754,3.1109619-0.055481c-0.0004883-0.0048218-0.0029907-0.0093994-0.00354-0.0142212   c2.4276733,0.0726318,4.8363037,0.4393921,7.1073608,1.0897827C31.0023193,33.312439,29.8106079,34.2602539,28.4180908,34.9938354z   "/><path d="M39.9180908,32.6535034c0.2592773-0.1047363,0.5251465-0.1990356,0.7897339-0.2954102   c4.043457,4.752449,9.2579231,6.3170471,14.7962036,3.3964844c1.919323-1.0106735,4.4566994-3.1291962,4.6711426-3.4355469   c1.1419754,0.4123802,1.5308228-1.039957,0.6374512-1.3676758c-6.6865234-2.453125-14.9082031-2.3344727-21.4570313,0.3115234   C38.4388733,31.6325989,38.9932213,33.0234489,39.9180908,32.6535034z M49.4122314,35.7120972   c-2.9348869-0.1696053-5.2378082-1.7194557-7.1605225-3.8666992c2.0805054-0.6113892,4.2827148-0.9818726,6.5109863-1.1082153   c-0.5403214,1.6002083,0.9931679,3.2016869,2.6495361,2.3762817c0.84589-0.421524,1.3486748-1.3635483,0.9442139-2.3643799   c2.1096802,0.1279297,4.1922607,0.4762573,6.1711426,1.0429688C55.9022636,33.9907684,53.049614,35.9231682,49.4122314,35.7120972z   "/><path d="M18.444458,46.1920776c0.6680298,0.3895264,1.350708,0.7564697,2.0458984,1.100647   c-0.3427124,2.7192383,0.3063354,5.5933838,1.7900391,7.8964233c0.3699322,0.5703125,1.2434502,0.395874,1.3681641-0.2685547   c0.6338806-3.3995056,2.3945255-4.9566383,2.5723267-5.4088135c7.1637459,2.1070251,14.5724792,2.014801,21.9936523-0.6791992   c2.9221115,3.8013878,2.5209312,4.8609314,3.4613647,4.8707275c0.0019531,0,0.0048828,0,0.0068359,0   c0.2783203,0,0.5341797-0.1542969,0.6640625-0.4013672c1.1082764-2.1099243,1.5002441-4.5352173,1.1386108-6.8845825   c1.0055542-0.5639648,1.9921875-1.1584473,2.9317017-1.8175659c0.8131981-0.5706444-0.0504417-1.7977295-0.8613281-1.2275391   c-10.748333,7.5393372-24.9927998,8.1479492-36.3554688,1.5239258   C18.3401928,44.3973541,17.5897579,45.6935005,18.444458,46.1920776z M51.6065674,51.2238159   c-0.583252-1.0221558-1.2411499-1.9987183-1.9420166-2.9398193c0.8133545-0.3355103,1.6150513-0.6970215,2.4000244-1.0909424   C52.18927,48.5443726,52.0391235,49.9337158,51.6065674,51.2238159z M22.6866455,52.7330933   c-0.6166382-1.5050659-0.862915-3.1617432-0.7380371-4.7780151c0.9123535,0.4006348,1.8365479,0.776001,2.7816772,1.0991211   C23.8526001,50.1630249,23.1560669,51.4047241,22.6866455,52.7330933z"/><path d="M9.7041626,32.2392578c-3.5130486,12.4141579,2.8120995,25.3032074,13.1293335,31.421936   c0,0.0090942,0.0090332,0.0090942,0.0090332,0.0090942c0.0126953,0.0073853,0.026001,0.0137329,0.0387573,0.0211182   c4.6549072,3.5059814,12.8754272,4.7139893,16.2221069,4.9145508c9.0463257,0.5420532,14.7840576,0.4817505,25.644165-2.2566528   c2.306366-0.5816193,2.7336578-3.0380898,0.4554443-3.085022c-5.4400024-0.1122437-9.8756104,0.0310059-14.3314209,0.633667   c0.6013412-0.3646126,2.0621529-1.0832443,4.142395-2.7825317c8.768322-7.1922188,12.4017334-19.7894974,9.255188-30.6038208   c0.0397339-0.0357056,0.0881958-0.0579224,0.1206055-0.1032104c3.2060547-4.4672852,4.1826172-10.5048828,2.5488281-15.7553711   c-0.0849609-0.2744141-0.3203125-0.4760742-0.6044922-0.519043c-0.2822266-0.0405273-0.5673828,0.0805664-0.7304688,0.3178711   c-1.7076416,2.4949341-3.9879761,4.6140747-6.5974121,6.1447754c-1.7390137-2.0936279-3.7982788-3.949707-6.1445923-5.5014038   c-0.6971893-4.1610985-3.0193939-7.6727195-5.9894409-10.7415161c-0.2324219-0.2397461-0.5927734-0.296875-0.8847885-0.144043   c-0.294899,0.1533203-0.4531021,0.4814453-0.3906021,0.8076172c0.4247437,2.2053223,0.4398193,4.4714966,0.0700073,6.678772   c-6.7204018-2.0694599-14.2770138-1.5583763-20.8908691,1.8488159c-1.3364258-2.46521-2.114624-5.2157593-2.2582397-8.0227051   c-0.0166016-0.331543-0.2490234-0.6123047-0.5722656-0.690918c-0.3212891-0.0771484-0.6582031,0.0649414-0.8242188,0.3510742   c-2.3793297,4.0784531-3.8754997,8.5374489-3.0839844,13.2119141c-1.1585541,1.1221256-2.1970911,2.3456097-3.1027222,3.5915527   c-0.8637629-0.3137321-5.932622-0.6142521-8.2976685-3.8210449c-0.4539552-0.6173344-1.4390492-0.229948-1.3486328,0.5341797   c0.5566406,4.6435547,1.9423828,9.0981445,4.1201167,13.2402344C9.4782104,32.0715942,9.5830078,32.1708984,9.7041626,32.2392578z    M65.8897705,16.5861206c0.8459473,4.1204834,0.0309448,8.5784302-2.2043457,12.1412964   c-0.4476929-1.2226563-0.9754028-2.4095459-1.5877075-3.5510864c0.9616089-0.5628662,1.7241821-1.4348755,2.1445923-2.4686279   c0.3748627-0.9195862-1.0151024-1.4841785-1.3886719-0.5654297c-0.2955322,0.7236328-0.828186,1.3344727-1.4992676,1.7311401   c-0.4386597-0.7203979-0.9152832-1.4173584-1.4191895-2.0959473   C62.2028198,20.4181519,64.2387695,18.6540527,65.8897705,16.5861206z M51.4063721,19.4098511   c-0.1019707,0.004528-3.6441231,1.0335484-7.3740234-0.949707c2.8435593-1.865572,3.5944824-7.8020506,3.3544922-11.2851563   C51.0903473,11.6738405,52.0123329,15.9704742,51.4063721,19.4098511z M45.3635254,13.1724243   c-1.4151802,5.6325264-3.3958931,3.6416245-3.7589111,4.8980713c-0.0878906,0.3046875,0.0253906,0.6313477,0.2822266,0.8164063   c2.7755318,2.0003376,6.2119675,2.7843876,9.7158203,2.015625c0.3022041-0.1132603,1.0277443-0.0416679,1.1748047-0.7011719   c0.2255249-1.007019,0.3188477-2.0664673,0.2858887-3.1487427c11.0226517,8.0372047,13.8998947,22.7756424,7.4406738,34.3069458   C52.3098106,65.8056335,36.914669,64.8121414,37.0147705,64.7868042   c-22.8086357-0.3561783-34.5443726-27.9964294-18.574707-44.65979c0.1984863,0.6456909,0.4400635,1.2680664,0.7319336,1.8551025   c0.1269531,0.2553711,0.3876953,0.4160156,0.671875,0.4160156c0.1006947,0,0.7393665-0.0154572,0.6386719-0.015625   c3.5-0.0874023,6.6787109-1.6069336,8.9521484-4.2792969c0.4539299-0.5339069-0.0111275-1.3469257-0.7041016-1.2241211   c-1.3752441,0.2515259-2.5812988-1.1652832-3.1829834-2.0450439   C31.7466259,11.6689167,38.9182777,11.1468267,45.3635254,13.1724243z M21.2950439,8.0441284   c0.577507,3.3119335,2.7717361,9.0358524,5.9550781,10.1572266c-1.8730469,1.6757813-4.2412109,2.6171875-6.8056641,2.6816406   l-0.1298828,0.0029297C18.9008694,17.6798153,18.7785053,13.282198,21.2950439,8.0441284z M14.0220947,23.3153687   c-0.1628466,0.2535686-1.323863,2.1482697-1.4785767,2.4076538c-0.3617277-0.1278133-1.2675648-0.2115536-1.8890991-1.1837769   c-0.5316181-0.8372402-1.7994366-0.0287838-1.2636719,0.8076172c0.5407104,0.8479004,1.4181519,1.4501343,2.3895264,1.7045898   c-0.5638428,1.0760498-1.0390015,2.1928101-1.4537964,3.3327637c-1.5139771-3.0671997-2.6054683-6.2964478-3.2150264-9.651123   C9.1367016,22.2654266,11.5275984,22.8503838,14.0220947,23.3153687z"/></g><text x="0" y="88" fill="#000000" font-size="5px" font-weight="bold" font-family="'Helvetica Neue', Helvetica, Arial-Unicode, Arial, Sans-serif">Created by Smashing Stocks</text><text x="0" y="93" fill="#000000" font-size="5px" font-weight="bold" font-family="'Helvetica Neue', Helvetica, Arial-Unicode, Arial, Sans-serif">from the Noun Project</text></svg>